<svg xmlns="http://www.w3.org/2000/svg" width="400" height="405.993" viewBox="0 0 400 405.993"><g fill-rule="evenodd"><path d="M31.648 108.942c-.331.399-.423 26.526-.349 98.9L31.4 306.2h40l.102-40.453c.093-37.014.158-40.499.761-41 .853-.708 81.188-1.033 83.767-.339l1.57.423v27.464l1.5.248c1.94.321 37.434.334 38.267.014.835-.32.987-142.843.153-143.677-.36-.36-5.257-.48-19.577-.48h-19.098l-.622.889c-.554.79-.623 5.307-.623 40.61v39.721l-1.026.39c-1.932.734-83.025.51-84.085-.233l-.889-.622v-39.604c0-26.535-.137-39.859-.414-40.377-.541-1.01-38.706-1.234-39.538-.232" fill="#cc9820"/><path d="M0 202.8v202.8h400V0H0zm72.939-94.851c.607.504.662 3.817.667 40.2.003 21.808.15 39.877.325 40.153.253.398 8.698.481 40.894.4l40.575-.102.2-40.08c.16-32.134.303-40.183.72-40.6.853-.853 41.441-.968 42.734-.121l.946.619V252.82l-1.026.39c-2.07.787-41.553.499-42.531-.31-.827-.684-.849-1.004-.945-14.1l-.098-13.4H73.8l-.102 40.361c-.073 29.016-.228 40.513-.549 40.9-.619.746-42.725.803-43.469.059-.542-.542-.715-197.75-.174-198.56.577-.863 1.737-.907 22.133-.834 16.823.06 20.761.175 21.3.623m102.856 155.243c.553.876 1.005 1.754 1.005 1.952 0 .32.428 1.348 2.688 6.456.341.77.848 1.94 1.127 2.6.28.66.868 2.01 1.309 3s1.907 4.41 3.258 7.6c1.352 3.19 2.724 6.286 3.049 6.88.838 1.532-.312 2.059-4.569 2.093-3.774.031-4.654-.566-5.626-3.81-.65-2.171-1.264-2.363-7.548-2.363-6.132 0-6.534.148-7.055 2.608-.603 2.844-1.782 3.595-5.604 3.568-3.686-.025-5.402-.763-4.312-1.853.266-.266.483-.728.483-1.028 0-.299.466-1.568 1.035-2.82a207 207 0 0 0 1.546-3.475c.281-.66.795-1.83 1.142-2.6s1.463-3.38 2.482-5.8c1.789-4.252 2.339-5.529 3.575-8.3.318-.715.868-2.02 1.22-2.9 1.363-3.403 1.358-3.4 5.804-3.4h3.986zm37.701-.792c.82.44 1.716.8 1.989.8s1.447.952 2.606 2.116c4.626 4.642 4.565 11.039-.152 15.981-1.272 1.332-2.221 2.571-2.109 2.752s1.445 2.179 2.961 4.44c3.384 5.044 3.322 5.214-1.904 5.272-4.234.046-4.139.106-7.169-4.523-2.779-4.245-3.013-4.438-5.394-4.438H202.4v3.951c0 2.982-.144 4.07-.586 4.437-.662.55-5.832.754-7.514.296l-1.1-.299v-15.313c0-11.376.123-15.435.48-15.792.925-.925 18.007-.65 19.816.32m22.704-.494c.581.427 2.2 2.799 2.2 3.224 0 .199.333.791.74 1.316s1.192 1.764 1.744 2.754c.553.99 1.345 2.367 1.76 3.061a339 339 0 0 1 2.272 3.893c2.062 3.581 2.45 3.157 10.197-11.132 1.746-3.219 2.082-3.422 5.683-3.422 4.326 0 4.004-1.305 4.004 16.253v15.293l-.9.301c-1.427.477-6.645.296-7.307-.253-.478-.397-.593-1.71-.593-6.776 0-3.457-.117-6.402-.261-6.545-.264-.265-2.333 2.976-4.38 6.861-2.792 5.3-6.186 5.468-8.959.444-2.198-3.982-3.452-5.897-4.266-6.511l-.934-.704v6.631c0 7.651.289 7.162-4.238 7.189-4.493.027-4.162 1.311-4.162-16.152 0-11.189.124-15.195.48-15.551.525-.525 6.246-.669 6.92-.174m60.642 1.171c8.572 4.422 11.855 13.668 7.79 21.944-1.393 2.836-5.189 6.505-7.432 7.184-.55.167-1.355.549-1.789.849-1.131.783-11.47.768-12.949-.018a24 24 0 0 0-2.373-1.054c-4.223-1.573-8.907-9.276-8.884-14.608.024-5.403 5.256-12.89 10.057-14.389a7.7 7.7 0 0 0 1.727-.839c1.902-1.316 10.634-.73 13.853.931m25.376.023c.758.825 1.379 1.622 1.38 1.771.001.15.268.538.594.863.708.709 4.162 5.029 5.008 6.264.33.482.935 1.265 1.345 1.739s1.195 1.446 1.745 2.159c1.542 2.001 1.71 1.382 1.71-6.306 0-8.384-.227-7.99 4.6-7.99 5.047 0 4.6-1.551 4.6 15.965 0 17.51.358 16.15-4.258 16.191-3.374.03-4.235-.637-8.735-6.756-.647-.88-1.454-1.893-1.792-2.251s-.975-1.152-1.415-1.764-1.382-1.759-2.093-2.549-1.398-1.751-1.527-2.136c-.799-2.391-1.325 1.399-1.343 9.667-.012 5.965.074 5.847-4.258 5.782-4.993-.075-4.579 1.388-4.579-16.178 0-17.479-.436-15.94 4.52-15.959 3.101-.012 3.13-.002 4.498 1.488m34.812-.6c.424.495 1.012 1.33 1.308 1.855a324 324 0 0 0 3.536 6.105c1.855 3.142 2.203 3.112 4.173-.365.715-1.262 1.406-2.385 1.535-2.495s.464-.65.746-1.2c2.515-4.919 2.359-4.8 6.301-4.8 5.796 0 5.814-.546-.329 9.993-2.695 4.623-5.152 8.892-5.46 9.486-.38.733-.586 2.737-.641 6.227-.1 6.374-.124 6.409-4.478 6.458-4.767.055-4.521.387-4.521-6.102 0-4.458-.119-5.663-.6-6.062-.33-.274-.6-.659-.6-.855 0-.354-1.951-3.829-3.301-5.88a32 32 0 0 1-1.327-2.265 70 70 0 0 0-1.583-2.8 60 60 0 0 1-1.57-2.8 54 54 0 0 0-1.591-2.8c-1.356-2.219-.773-2.6 3.979-2.6 3.294 0 3.729.089 4.423.9M202.4 273.2v4.8h3.453c5.977 0 8.312-4.09 4.751-8.323-1.061-1.26-1.122-1.277-4.64-1.277H202.4zm84-3.923c-7.48 3.365-7.789 13.327-.514 16.544 3.451 1.526 6.1.907 8.968-2.098 5.991-6.277-.803-17.887-8.454-14.446m-116.516 4.573c-.156.156-.284.533-.284.839s-.347 1.316-.771 2.247-.893 2.181-1.043 2.778l-.273 1.086h6.574l-.273-1.086c-.15-.597-.6-1.812-1.001-2.7s-.794-1.974-.875-2.414c-.145-.794-1.511-1.293-2.054-.75m199.887 27.179c1.069 1.068.87 5.288-.271 5.762-2.1.873-209.288 2.345-211.056 1.5-1.648-.787-1.788-5.516-.194-6.561 1.914-1.254 210.278-1.945 211.521-.701" fill="#040404"/><path d="M30.4 108.4c-.796.796-.8 1.333-.8 99.12 0 99.976-.01 99.28 1.356 99.28.219 0 .091-.225-.283-.5-.983-.723-.857-197.286.127-197.908.946-.598 40.519-.513 41.12.088.367.367.48 9.801.48 40.026 0 38.799.069 41.094 1.237 41.094.224 0 .128-.4-.214-.889-.554-.79-.623-5.305-.623-40.586 0-38.838-.017-39.706-.774-40.111-1.675-.896-40.705-.535-41.626.386m126.623.089c-.554.79-.623 5.274-.623 40.269 0 36.081-.055 39.44-.662 40.111-.724.8-.195 1.028.582.251.367-.367.48-9.745.48-39.774 0-24.563.146-39.679.39-40.32l.39-1.026 20.11.006c11.974.004 20.353.16 20.71.386.529.334.612 8.865.703 72.159l.103 71.78-1.103.403c-.607.222-.822.417-.479.434 2.13.108 1.994 5.359 1.88-72.7-.102-70.483-.118-71.742-.88-72.3-.647-.473-4.149-.568-20.878-.568h-20.101zM72.9 225.065c-.395.159-.5 8.683-.5 40.735 0 27.282-.134 40.6-.41 40.737-.226.112-.181.157.1.1.408-.083.55-8.202.71-40.47.11-22.202.346-40.592.524-40.867.346-.536.336-.542-.424-.235m83 .165c.379.402.5 3.739.5 13.826 0 7.313.135 13.38.3 13.483s.21-6.038.1-13.644c-.171-11.826-.287-13.855-.8-14.012-.484-.148-.504-.081-.1.347m11.438 37.077c-.644.409-13.39 30.085-13.115 30.531.123.199.529.341.901.316.595-.041.599-.067.03-.219-.738-.197 11.538-29.504 12.749-30.435.69-.53.218-.692-.565-.193m6.377.193c.367.275 1.94 3.47 3.497 7.1s2.995 6.96 3.198 7.4c3.454 7.485 6.667 15.63 6.265 15.885-.356.227-.347.304.038.309.281.003.598-.219.702-.494.237-.621-12.415-29.926-13.11-30.367-.819-.52-1.318-.378-.59.167m20.467.001c-.482 1.258.022 30.433.528 30.536.28.057.326.012.1-.1-.818-.406-.536-30.024.29-30.505.663-.386.663-.408-.013-.42-.391-.007-.799.214-.905.489m15.218-.215c10.15 1.407 14.046 11.514 7.205 18.691-2.712 2.845-2.758 2.284.595 7.306 1.54 2.307 2.685 4.38 2.544 4.607-.145.235-.015.326.3.212.802-.291.711-.484-2.478-5.242l-2.893-4.317 2.121-2.072c7.309-7.139 2.611-19.816-7.194-19.409-1.343.055-1.351.065-.2.224m20.382.215c-.482 1.258.022 30.433.528 30.536.28.057.326.012.1-.1-.818-.406-.536-30.024.29-30.505.663-.386.663-.408-.013-.42-.391-.007-.799.214-.905.489m5.541.399c.532.495 2.366 3.33 4.074 6.3 4.856 8.441 6.641 11.2 7.244 11.2 1 0 1.89-1.287 6.69-9.68 3.534-6.178 4.952-8.315 5.6-8.442.785-.153.792-.174.069-.217-1.278-.078-1.425.125-6.382 8.829-4.486 7.875-5.702 9.428-6.616 8.45-.175-.187-2.348-3.85-4.829-8.14-4.86-8.404-5.402-9.2-6.257-9.2-.36 0-.214.322.407.9m27.136-.632c.362.096.765.57.894 1.053.431 1.606.278 29.397-.163 29.616-.226.112-.18.157.1.1.4-.081.533-3.36.615-15.244.109-15.713.096-15.848-1.505-15.74-.466.031-.453.079.059.215m19.142 1.216c-13.857 6.688-11.442 27.676 3.399 29.543l1.2.151-1.2-.358c-16.693-4.986-15.778-28.211 1.2-30.444l2-.263-1.8-.038c-1.304-.028-2.627.361-4.799 1.409m10.199-1.09c17.199 3.157 17.506 26.613.4 30.53-.68.156-.657.19.154.23 8.858.43 16.091-13.131 11.743-22.017-2.304-4.711-8.439-9.216-12.372-9.087l-1.525.05zm22.695-.061c-.99.628-.497 30.631.505 30.755.44.054.575-.004.3-.128-.387-.176-.5-3.642-.5-15.366v-15.138l.9-.174c.776-.149.79-.18.1-.221-.44-.027-1.027.095-1.305.272m4.905-.054c.457.098 3.619 3.757 7.383 8.546 8.88 11.297 8.803 11.305 8.812-.925.004-6.731.073-7.5.672-7.5.366 0 .56-.106.43-.237-.13-.13-.61-.117-1.067.027-.802.255-.83.522-.83 7.994 0 7.751-.33 9.372-1.612 7.929-.153-.172-3.092-3.868-6.532-8.213-4.985-6.298-6.436-7.889-7.155-7.846-.804.049-.815.073-.101.225m21.709.057c.402.254.487 3.566.4 15.594-.072 10.051.028 15.225.291 15.137.255-.085.438-5.557.505-15.053.105-14.914.018-16.025-1.254-16.008-.288.004-.267.123.058.33m7.845.239c-.121.317 1.174 2.972 2.878 5.9a2940 2940 0 0 1 5.464 9.434l2.366 4.108v4.646c0 4.776.337 6.561 1.228 6.505.401-.024.403-.074.01-.233-.365-.147-.5-1.632-.5-5.482v-5.28l-5.443-9.386c-6.424-11.08-6.051-10.279-4.888-10.501l.931-.177-.913-.055c-.501-.029-1.011.205-1.133.521m6.088-.205c.463.198 1.341 1.232 1.951 2.296 7.229 12.6 6.498 12.347 11.41 3.956 1.925-3.287 3.837-6.11 4.248-6.272.634-.248.646-.298.078-.322-1.006-.042-1.513.62-4.662 6.083-4.368 7.579-4.031 7.592-8.642-.332-2.681-4.607-3.419-5.596-4.236-5.675-.925-.09-.935-.073-.147.266m22.058-.13c.843.382.666.758-4.9 10.367l-5.4 9.323v5.406c0 4.486-.103 5.437-.608 5.594-.426.132-.396.17.1.125.63-.057.73-.681.908-5.659l.201-5.596 5.349-9.13c5.599-9.557 5.958-10.371 4.65-10.548-.44-.059-.575-.006-.3.118m-175.6 5.773c-1.174.715-1.038 9.778.156 10.417 1.851.991 8.559.297 9.941-1.027 2.512-2.407 2.506-6.004-.013-8.42-1.351-1.294-8.434-1.976-10.084-.97m9.747 1.54c3.755 3.755 1.358 8.523-4.415 8.785-5.459.248-5.232.468-5.232-5.079 0-5.664-.332-5.259 4.314-5.259h3.78zm73.59-.724c-9.338 5.011-6.3 18.544 4.163 18.549 8.689.004 12.998-11.077 6.538-16.81-1.334-1.185-3.864-2.57-4.661-2.554-.372.008.229.438 1.337.957 9.085 4.251 6.621 18.221-3.214 18.221-10.07 0-12.493-13.802-3.2-18.231 1.1-.524 1.64-.933 1.2-.908s-1.413.374-2.163.776m-116.968 6.845c-2.3 5.932-2.303 5.926 2.931 5.926 5.274 0 5.29-.031 2.939-5.823-2.761-6.802-3.268-6.811-5.87-.103m5.425.426c2.048 5.237 2.121 5.088-2.494 5.088-1.87 0-3.592-.132-3.827-.294-.71-.489 2.915-9.294 3.827-9.294.564 0 1.141 1.042 2.494 4.5m147.711-.028c-.488 1.344-.399 17.025.095 16.835.377-.145.5-2.159.5-8.178 0-10.097-.379-10.114 7.956.371 4.23 5.321 6.68 8.084 7.141 8.054.539-.036.563-.089.103-.229-.596-.181-1.366-1.113-9.204-11.125-4.941-6.311-6.035-7.262-6.591-5.728m-65.641 1.428c-.35.385-2.039 3.13-3.754 6.1-4.665 8.077-4.929 8.079-9.81.066-5.508-9.044-5.8-8.969-5.8 1.488 0 5.689-.125 7.63-.5 7.781-.393.159-.391.209.01.233.966.06 1.29-2.039 1.29-8.37 0-8.504.091-8.496 5.368.512 4.218 7.201 5.138 7.006 10.41-2.21 3.943-6.892 4.222-6.729 4.222 2.457 0 7.053.327 8.65 1.524 7.452.115-.115-.001-.209-.257-.209-.339 0-.467-2.021-.467-7.367 0-8.868-.328-10.032-2.236-7.933m-51.864 6.782a5.7 5.7 0 0 0 1.8 0c.495-.095.09-.173-.9-.173s-1.395.078-.9.173m-2.2.383c-.353.142-.5 1.368-.5 4.161 0 4.455.194 4.213-3.6 4.499l-1.8.135 2.081.07c3.815.128 4.119-.223 4.119-4.761 0-2.748.148-3.962.5-4.104.275-.111.32-.202.1-.202s-.625.091-.9.202m6.025.235c.372.275 1.81 2.209 3.194 4.298 1.433 2.164 2.813 3.824 3.206 3.859.38.034.462-.016.183-.112-.279-.095-1.721-2.057-3.203-4.359-1.688-2.622-2.95-4.186-3.376-4.186-.64 0-.641.03-.004.5m-43.202 1.978c-.532.257-1.308 1.462-1.976 3.073-.606 1.457-1.153 2.721-1.217 2.809s-1.245.289-2.624.446c-2.373.269-2.407.287-.632.339 2.505.073 3.857-.499 4.34-1.838 1.726-4.783 1.948-4.907 8.786-4.907 6.414 0 6.873.189 8.131 3.355 1.133 2.85 2.01 3.458 4.869 3.375 1.488-.043 1.642-.094.6-.198-3.285-.328-3.954-.558-4.223-1.446-.789-2.606-1.92-4.623-2.823-5.034-1.262-.575-12.03-.554-13.231.026m51.577 6.609a9 9 0 0 0 2.2 0c.605-.092.11-.167-1.1-.167s-1.705.075-1.1.167m16.405 0c.609.092 1.509.09 2-.005s-.005-.171-1.105-.168-1.503.081-.895.173m27.395-.005a5.7 5.7 0 0 0 1.8 0c.495-.095.09-.173-.9-.173s-1.395.078-.9.173m28.4 0a5.7 5.7 0 0 0 1.8 0c.495-.095.09-.173-.9-.173s-1.395.078-.9.173m29 .005a9 9 0 0 0 2.2 0c.605-.092.11-.167-1.1-.167s-1.705.075-1.1.167m21.4-.005a5.7 5.7 0 0 0 1.8 0c.495-.095.09-.173-.9-.173s-1.395.078-.9.173m24.205.005c.609.092 1.509.09 2-.005s-.005-.171-1.105-.168-1.503.081-.895.173M239.2 301.235c-53.779.376-80.146.761-80.825 1.18-.65.402-.537 4.306.149 5.137.412.5 6.885.534 48.476.253 26.4-.177 67.8-.441 92-.585l44-.261-32.6-.087c-17.93-.047-59.222.125-91.76.383-67.137.533-60.4.853-60.158-2.855l.118-1.8 23.6-.27c48.894-.559 130.631-1.148 158.1-1.139l28.5.009v2.6c0 1.714-.159 2.6-.467 2.6-.256 0-.351.116-.209.257.141.141.531.029.866-.249.745-.618.841-4.417.13-5.128-.548-.548-55.227-.567-129.92-.045M41.528 307.1c5.57.063 14.57.062 20 0 5.43-.063.872-.115-10.128-.114-11 0-15.442.051-9.872.114" fill="#4e390c"/><path d="M30.8 108.392c-.984.622-1.11 197.185-.127 197.908.716.526 39.756.771 41.094.257.571-.219.633-4.185.633-40.792v-40.55l.9-.217c.495-.12 19.44-.168 42.1-.108l41.2.11.2 13.782.2 13.782 1 .278c1.743.485 38.535.409 39.944-.082l1.262-.441-.103-71.774c-.091-63.289-.174-71.819-.703-72.153-.357-.226-8.736-.382-20.71-.386L157.58 108l-.39 1.026c-.244.641-.39 15.757-.39 40.32 0 30.029-.113 39.407-.48 39.774-.953.953-82.993.665-83.506-.294-.277-.518-.414-13.824-.414-40.32 0-30.225-.113-39.659-.48-40.026-.601-.601-40.174-.686-41.12-.088m40.386.782c.277.518.414 13.842.414 40.377v39.604l.889.622c1.06.743 82.153.967 84.085.233l1.026-.39v-39.721c0-35.303.069-39.82.623-40.61l.622-.889h19.098c14.32 0 19.217.12 19.577.48.834.834.682 143.357-.153 143.677-.833.32-36.327.307-38.267-.014l-1.5-.248v-27.464l-1.57-.423c-2.579-.694-82.914-.369-83.767.339-.603.501-.668 3.986-.761 41L71.4 306.2h-40l-.101-98.358c-.074-72.374.018-98.501.349-98.9.832-1.002 38.997-.778 39.538.232M167.903 262.5c-.358.275-3.516 7.191-7.018 15.369-7.074 16.519-6.832 15.32-3.085 15.32 2.787 0 3.123-.245 4.306-3.151 1.43-3.508 1.74-3.638 8.694-3.638 7.291 0 7.809.302 9.367 5.457.369 1.217 5.048 1.957 6.508 1.028.402-.255-2.811-8.4-6.265-15.885-.203-.44-1.642-3.77-3.198-7.4-3.195-7.452-3.32-7.6-6.412-7.6-1.236 0-2.54.225-2.897.5m27.197-.092c-.646.399-.7 1.574-.7 15.369 0 16.784-.282 15.423 3.2 15.423 3.219 0 3.2.026 3.2-4.412v-3.926l1.433-.473c.889-.293 2.267-.369 3.626-.199l2.192.274 2.675 4.146c2.873 4.454 3.047 4.576 6.55 4.585 3.11.007 3.107-.143-.076-4.912-3.353-5.022-3.307-4.461-.595-7.306 5.916-6.206 4.013-14.846-3.921-17.809-2.842-1.061-16.161-1.637-17.584-.76m35.6.024c-.647.377-.7 1.541-.7 15.345 0 16.704-.249 15.423 3 15.423 3.153 0 3 .411 3-8.055 0-10.414.39-10.52 5.744-1.563 5.115 8.558 5.224 8.526 11.903-3.463 3.162-5.678 3.939-4.667 3.947 5.138.007 8.34-.144 7.943 3.006 7.943 3.245 0 3.001 1.201 2.995-14.743-.007-15.882-.009-15.909-1.602-16.259-3.263-.716-3.526-.457-8.671 8.538-4.792 8.377-5.681 9.664-6.681 9.664-.603 0-2.388-2.759-7.244-11.2-4.095-7.119-5.807-8.451-8.697-6.768m55.5-.07c-11.672 1.614-17.373 16.067-9.923 25.158 6.464 7.889 20.315 7.333 26.032-1.044 7.706-11.294-2.147-26.044-16.109-24.114m29.5-.1-.9.194v30.329l.927.232c.509.128 1.814.177 2.9.108L320.6 293l.2-8.6c.152-6.537.32-8.59.7-8.56.275.022.733.067 1.017.1s2.386 2.445 4.671 5.36c10.094 12.879 9.32 12.166 12.839 11.831L341.4 293l.105-15.173c.115-16.721.259-15.814-2.505-15.815-3.607-.002-3.399-.486-3.405 7.935-.009 12.132.039 12.125-8.613 1.18-3.51-4.441-6.482-8.219-6.604-8.397-.278-.406-3.475-.726-4.678-.468m34.369.024c-1.163.222-1.536-.579 4.888 10.501l5.443 9.386v5.271c0 5.886-.064 5.76 2.933 5.751 3.596-.012 3.467.206 3.467-5.876v-5.389l5.4-9.323c6.405-11.057 6.301-10.649 2.667-10.579-2.48.048-2.855.43-6.464 6.594-4.911 8.39-4.182 8.643-11.408-3.953-1.44-2.51-3.157-3.101-6.926-2.383m-138.485 6.697c2.519 2.416 2.525 6.013.013 8.42-1.382 1.324-8.09 2.018-9.941 1.027-1.194-.639-1.33-9.702-.156-10.417 1.65-1.006 8.733-.324 10.084.97m81.866.101c5.846 3.122 6.887 10.668 2.153 15.616-5.521 5.771-15.317 2.213-16.279-5.912-.912-7.697 7.308-13.344 14.126-9.704m-119.711 6.693c2.351 5.792 2.335 5.823-2.939 5.823-5.234 0-5.231.006-2.931-5.926 2.602-6.708 3.109-6.699 5.87.103m75.861 25.892c-20.79.183-49.77.467-64.4.632l-26.6.299-.118 1.8c-.242 3.708-6.979 3.388 60.158 2.855 32.538-.258 79.35-.466 104.027-.462s45.152-.102 45.5-.236c.486-.186.633-.837.633-2.8V301.2l-40.7.069c-22.385.038-57.71.218-78.5.4" fill="#745414"/><path d="M30.4 107.486c-.33.129-.732.432-.894.674-.541.81-.368 198.018.174 198.56.264.264.849.477 1.3.474.734-.005.715-.059-.18-.512l-1-.506-.101-98.487c-.1-98.054-.097-98.491.7-99.288.921-.921 39.951-1.284 41.627-.387.757.405.774 1.273.774 40.111 0 35.281.069 39.796.623 40.586l.622.889h40.516c38.742 0 40.544-.032 41.177-.731.607-.671.662-4.03.662-40.111 0-34.995.069-39.479.623-40.269l.622-.889h20.101c16.729 0 20.231.095 20.878.568 1.14.833 1.44 143.697.304 144.532-.885.65-40.548.731-41.754.086-.741-.397-.774-.974-.774-13.72 0-9.816-.126-13.432-.48-13.786-.367-.367-10.109-.48-41.41-.48H73.58l-.39 1.026c-.244.642-.39 15.93-.39 40.813v39.787l-.9.362c-.883.355-.884.362-.049.387 1.774.052 1.74.804 1.847-41.414L73.8 225.4h81.6l.098 13.4c.096 13.096.118 13.416.945 14.1.978.809 40.461 1.097 42.531.31l1.026-.39V108.418l-.946-.619c-1.293-.847-41.881-.732-42.734.121-.417.417-.56 8.466-.72 40.6l-.2 40.08-40.575.102c-32.196.081-40.641-.002-40.894-.4-.175-.276-.322-18.345-.325-40.153-.005-36.383-.06-39.696-.667-40.2-.683-.567-41.143-1.007-42.539-.463M166.23 262.5c-.324.495-.877 1.62-1.23 2.5-.352.88-.902 2.185-1.22 2.9-1.236 2.771-1.786 4.048-3.575 8.3-1.019 2.42-2.135 5.03-2.482 5.8s-.861 1.94-1.142 2.6-.977 2.224-1.546 3.475c-.569 1.252-1.035 2.521-1.035 2.82 0 .3-.208.753-.463 1.008-.685.685.313 1.708 1.612 1.651.828-.037.881-.088.251-.239-.44-.106-.941-.325-1.113-.487-.361-.339 12.355-30.079 13.051-30.521.624-.398 6.333-.376 6.967.026.673.427 13.351 29.735 13.122 30.336-.098.258-.594.548-1.103.646l-.924.176.926.055c1.823.107 2.579-.634 1.905-1.866-.325-.594-1.697-3.69-3.049-6.88a714 714 0 0 0-3.258-7.6c-.441-.99-1.029-2.34-1.309-3-.279-.66-.786-1.83-1.127-2.6-2.26-5.108-2.688-6.136-2.688-6.456 0-.198-.452-1.076-1.005-1.952l-1.005-1.592h-3.986c-3.692 0-4.029.066-4.574.9m27.45-.42c-.357.357-.48 4.408-.48 15.757 0 16.381-.07 15.814 1.933 15.738.47-.018.399-.133-.238-.389l-.905-.364.105-15.311.105-15.311 8.372-.108c7.874-.102 8.505-.055 10.6.786 8.224 3.301 9.991 12.372 3.622 18.593l-2.121 2.072 2.893 4.317c3.357 5.01 3.345 4.977 2.034 5.365l-1 .295 1.051.04c2.166.082 2.024-.748-.868-5.071a600 600 0 0 1-2.953-4.44c-.112-.181.837-1.42 2.109-2.752 4.717-4.942 4.778-11.339.152-15.981-1.159-1.164-2.332-2.116-2.606-2.116-.273 0-1.169-.36-1.989-.8-1.809-.97-18.891-1.245-19.816-.32m35.6 0c-.769.769-.681 30.455.092 31.097.315.261 1.62.546 2.9.632l2.328.157-2.141-.344c-3.04-.489-2.879.456-2.764-16.247l.105-15.175 2.824-.116c3.451-.142 2.783-.854 8.549 9.116 2.481 4.29 4.654 7.953 4.829 8.14.914.978 2.13-.575 6.616-8.45 5.408-9.495 4.853-8.878 7.982-8.878 3.693 0 3.423-1.288 3.305 15.797l-.105 15.155-1 .278c-.906.252-.918.282-.133.318 2.233.103 2.133.843 2.133-15.723 0-17.54.321-16.237-4.004-16.237-3.601 0-3.937.203-5.683 3.422-7.747 14.289-8.135 14.713-10.197 11.132a339 339 0 0 0-2.272-3.893 148 148 0 0 1-1.76-3.061c-.552-.99-1.337-2.229-1.744-2.754s-.74-1.117-.74-1.316c0-.425-1.619-2.797-2.2-3.224-.674-.495-6.395-.351-6.92.174m53.709.066a7.7 7.7 0 0 1-1.727.839c-4.801 1.499-10.033 8.986-10.057 14.389-.023 5.332 4.661 13.035 8.884 14.608.721.269 1.789.743 2.373 1.054.584.31 1.934.54 3 .511l1.938-.054-1.8-.304C265.933 289.871 268.983 262 289.013 262c19.922 0 22.659 28.632 2.987 31.236l-1.8.238 2.211.063c1.314.038 2.531-.159 3-.483.434-.3 1.239-.682 1.789-.849 2.243-.679 6.039-4.348 7.432-7.184 4.065-8.276.782-17.522-7.79-21.944-3.219-1.661-11.951-2.247-13.853-.931m30.911-.114c-.647.377-.7 1.549-.7 15.508 0 16.116-.002 16.098 1.98 16.02l1.02-.04-1-.278-1-.278-.105-15.155c-.119-17.187-.437-15.794 3.606-15.803l2.702-.006 6.253 7.9c3.44 4.345 6.379 8.041 6.532 8.213 1.282 1.442 1.612-.178 1.612-7.913 0-8.828-.303-8.2 3.953-8.2 3.906 0 3.647-1.129 3.647 15.893v14.933l-.9.362c-.849.341-.854.363-.08.387 1.754.054 1.78-.177 1.78-16.041 0-17.48.446-15.934-4.6-15.934-4.827 0-4.6-.394-4.6 7.99 0 7.688-.168 8.307-1.71 6.306a63 63 0 0 0-1.745-2.159 24 24 0 0 1-1.345-1.739c-.846-1.235-4.3-5.555-5.008-6.264-.326-.325-.593-.713-.594-.863-.001-.149-.622-.946-1.38-1.771-1.453-1.582-6.355-2.212-8.318-1.068m34.402.068c-.593.455-.564.643.326 2.1.537.88 1.253 2.14 1.591 2.8.337.66 1.044 1.92 1.57 2.8s1.238 2.14 1.583 2.8c.344.66.942 1.679 1.327 2.265 1.35 2.051 3.301 5.526 3.301 5.88 0 .196.27.581.6.855.48.399.6 1.6.6 6.025 0 6.217-.159 5.916 3.266 6.161l2.534.181-2.141-.345c-3.019-.486-3.046-.54-3.155-6.48l-.097-5.219-2.338-4.062a3047 3047 0 0 0-5.437-9.386c-3.773-6.484-3.766-6.543.85-6.391l3.495.116 3.247 5.579c4.634 7.961 4.232 7.963 8.858-.032 3.426-5.92 3.342-5.855 7.33-5.668 3.393.159 3.515-.293-2.862 10.591l-5.349 9.13-.201 5.583c-.199 5.543-.207 5.585-1.2 5.86l-1 .277 1.051.04c1.784.068 2.062-.746 2.149-6.293.054-3.458.261-5.456.64-6.188.308-.594 2.765-4.863 5.46-9.486 6.143-10.539 6.125-9.993.329-9.993-3.942 0-3.786-.119-6.301 4.8-.282.55-.617 1.09-.746 1.2s-.82 1.233-1.535 2.495c-1.97 3.477-2.318 3.507-4.173.365a324 324 0 0 1-3.536-6.105c-1.457-2.586-1.807-2.755-5.731-2.755-2.309 0-3.894.184-4.305.5m-146.435 6.167c-.902.902-.256 9.72.73 9.968 7.602 1.908 13.411-3.921 8.65-8.682L209.694 268h-3.78c-2.079 0-3.901.12-4.047.267m83.933.694c-4.049 1.93-5.88 4.62-5.88 8.639 0 10.423 13.448 13.111 17.468 3.491 3.024-7.239-4.757-15.385-11.588-12.13m-75.196.716c3.561 4.233 1.226 8.323-4.751 8.323H202.4v-9.6h3.564c3.518 0 3.579.017 4.64 1.277m80.841-.416c7.579 3.353 7.702 13.436.204 16.762-8.023 3.56-14.914-8.512-8.38-14.68 2.839-2.679 5.369-3.324 8.176-2.082M168.306 276.1c-2.048 5.237-2.121 5.088 2.494 5.088 1.87 0 3.592-.132 3.827-.294.71-.489-2.915-9.294-3.827-9.294-.564 0-1.141 1.042-2.494 4.5m3.632-1.5c.081.44.475 1.526.875 2.414.401.888.851 2.103 1.001 2.7l.273 1.086h-6.574l.273-1.086c.15-.597.619-1.848 1.043-2.778.424-.931.771-1.942.771-2.247 0-1.355 2.092-1.434 2.338-.089M321.6 284.724v7.979l-1.1.434c-.605.239-1.64.509-2.3.6s-.229.107.957.037c2.888-.171 2.868-.131 2.88-5.807.018-8.268.544-12.058 1.343-9.667.129.385.816 1.346 1.527 2.136s1.653 1.937 2.093 2.549 1.077 1.406 1.415 1.764 1.145 1.371 1.792 2.251c3.907 5.313 5.336 6.556 7.793 6.774l2.2.195-2.131-.42-2.131-.42-6.41-8.064c-8.303-10.446-7.928-10.429-7.928-.341m-84.506-6.485c-.162.162-.294 3.133-.294 6.602 0 6.587-.273 8.155-1.477 8.497-.398.113-.183.173.477.134l1.2-.072.2-6.666c.244-8.127.549-8.102 5.2.431 2.746 5.037 6.165 4.873 8.959-.431 2.047-3.885 4.116-7.126 4.38-6.861.144.143.261 3.074.261 6.514 0 6.697.149 7.238 1.98 7.181l1.02-.031-1.1-.402-1.1-.402v-7.166c0-9.198-.279-9.36-4.222-2.467-5.383 9.409-6.107 9.503-10.894 1.415-3.141-5.306-4.163-6.703-4.59-6.276m-34.994 6.426c-.352.142-.5 1.357-.5 4.107 0 3.655-.058 3.934-.9 4.34-.858.414-.862.435-.08.461 1.492.049 1.78-.736 1.78-4.853v-3.92h1.924c2.381 0 2.615.193 5.394 4.438 2.823 4.313 2.838 4.324 5.923 4.546 2.54.182 2.543.181.462-.156-3.063-.496-2.986-.433-5.716-4.616-2.966-4.544-5.067-5.646-8.287-4.347m-37.558 2.605c-.796.385-1.532 1.678-2.529 4.441-.221.611-.809 1.274-1.307 1.474l-.906.364.873.026c.997.029 2.328-1.614 2.754-3.399.582-2.442.949-2.576 7.061-2.576 6.259 0 6.849.18 7.535 2.297.713 2.197 1.897 3.704 2.904 3.697.857-.006.856-.015-.076-.5-.596-.311-1.309-1.402-1.92-2.939-.664-1.672-1.288-2.589-1.97-2.9-1.255-.572-11.232-.56-12.419.015m-7.442 6.612a5.7 5.7 0 0 0 1.8 0c.495-.095.09-.173-.9-.173s-1.395.078-.9.173m25.6 0a5.7 5.7 0 0 0 1.8 0c.495-.095.09-.173-.9-.173s-1.395.078-.9.173m14.2-.006c.385.1 1.015.1 1.4 0 .385-.101.07-.183-.7-.183s-1.085.082-.7.183m2.068 6.908c-46.006.273-41.883-.156-41.686 4.333.108 2.441.21 2.719 1.17 3.178 1.062.507 105.204.059 161.748-.697 15.495-.207 6.802-.253-28.2-.149-27.83.083-69.141.267-91.801.41-35.466.224-41.268.181-41.677-.312-.685-.825-.797-4.73-.147-5.132 1.721-1.063 209.696-2.184 210.745-1.135.66.66.619 4.507-.054 5.065-.361.299-4.755.48-13.5.555l-12.966.111 13.126.095c8.466.061 13.401-.053 13.9-.32 1.018-.545 1.125-4.778.145-5.757-.678-.679-78.688-.79-170.803-.245" fill="#342c08"/></g></svg>
