<svg id="svg" version="1.1" xmlns="http://www.w3.org/2000/svg" xmlns:xlink="http://www.w3.org/1999/xlink" width="400" height="405.9925093632959" viewBox="0, 0, 400,405.9925093632959"><g id="svgg"><path id="path0" d="M31.648 108.942 C 31.317 109.341,31.225 135.468,31.299 207.842 L 31.400 306.200 51.400 306.200 L 71.400 306.200 71.502 265.747 C 71.595 228.733,71.660 225.248,72.263 224.747 C 73.116 224.039,153.451 223.714,156.030 224.408 L 157.600 224.831 157.600 238.563 L 157.600 252.295 159.100 252.543 C 161.040 252.864,196.534 252.877,197.367 252.557 C 198.202 252.237,198.354 109.714,197.520 108.880 C 197.160 108.520,192.263 108.400,177.943 108.400 L 158.845 108.400 158.223 109.289 C 157.669 110.079,157.600 114.596,157.600 149.899 L 157.600 189.620 156.574 190.010 C 154.642 190.744,73.549 190.520,72.489 189.777 L 71.600 189.155 71.600 149.551 C 71.600 123.016,71.463 109.692,71.186 109.174 C 70.645 108.164,32.480 107.940,31.648 108.942 " stroke="none" fill="#cc9820" fill-rule="evenodd"></path><path id="path1" d="M0.000 202.800 L 0.000 405.600 200.000 405.600 L 400.000 405.600 400.000 202.800 L 400.000 0.000 200.000 0.000 L 0.000 0.000 0.000 202.800 M72.939 107.949 C 73.546 108.453,73.601 111.766,73.606 148.149 C 73.609 169.957,73.756 188.026,73.931 188.302 C 74.184 188.700,82.629 188.783,114.825 188.702 L 155.400 188.600 155.600 148.520 C 155.760 116.386,155.903 108.337,156.320 107.920 C 157.173 107.067,197.761 106.952,199.054 107.799 L 200.000 108.418 200.000 180.619 L 200.000 252.820 198.974 253.210 C 196.904 253.997,157.421 253.709,156.443 252.900 C 155.616 252.216,155.594 251.896,155.498 238.800 L 155.400 225.400 114.600 225.400 L 73.800 225.400 73.698 265.761 C 73.625 294.777,73.470 306.274,73.149 306.661 C 72.530 307.407,30.424 307.464,29.680 306.720 C 29.138 306.178,28.965 108.970,29.506 108.160 C 30.083 107.297,31.243 107.253,51.639 107.326 C 68.462 107.386,72.400 107.501,72.939 107.949 M175.795 263.192 C 176.348 264.068,176.800 264.946,176.800 265.144 C 176.800 265.464,177.228 266.492,179.488 271.600 C 179.829 272.370,180.336 273.540,180.615 274.200 C 180.895 274.860,181.483 276.210,181.924 277.200 C 182.365 278.190,183.831 281.610,185.182 284.800 C 186.534 287.990,187.906 291.086,188.231 291.680 C 189.069 293.212,187.919 293.739,183.662 293.773 C 179.888 293.804,179.008 293.207,178.036 289.963 C 177.386 287.792,176.772 287.600,170.488 287.600 C 164.356 287.600,163.954 287.748,163.433 290.208 C 162.830 293.052,161.651 293.803,157.829 293.776 C 154.143 293.751,152.427 293.013,153.517 291.923 C 153.783 291.657,154.000 291.195,154.000 290.895 C 154.000 290.596,154.466 289.327,155.035 288.075 C 155.604 286.824,156.300 285.260,156.581 284.600 C 156.862 283.940,157.376 282.770,157.723 282.000 C 158.070 281.230,159.186 278.620,160.205 276.200 C 161.994 271.948,162.544 270.671,163.780 267.900 C 164.098 267.185,164.648 265.880,165.000 265.000 C 166.363 261.597,166.358 261.600,170.804 261.600 L 174.790 261.600 175.795 263.192 M213.496 262.400 C 214.316 262.840,215.212 263.200,215.485 263.200 C 215.759 263.200,216.932 264.152,218.091 265.316 C 222.717 269.958,222.656 276.355,217.939 281.297 C 216.667 282.629,215.718 283.868,215.830 284.049 C 215.942 284.230,217.275 286.228,218.791 288.489 C 222.175 293.533,222.113 293.703,216.887 293.761 C 212.653 293.807,212.748 293.867,209.718 289.238 C 206.939 284.993,206.705 284.800,204.324 284.800 L 202.400 284.800 202.400 288.751 C 202.400 291.733,202.256 292.821,201.814 293.188 C 201.152 293.738,195.982 293.942,194.300 293.484 L 193.200 293.185 193.200 277.872 C 193.200 266.496,193.323 262.437,193.680 262.080 C 194.605 261.155,211.687 261.430,213.496 262.400 M236.200 261.906 C 236.781 262.333,238.400 264.705,238.400 265.130 C 238.400 265.329,238.733 265.921,239.140 266.446 C 239.547 266.971,240.332 268.210,240.884 269.200 C 241.437 270.190,242.229 271.567,242.644 272.261 C 243.060 272.954,244.082 274.706,244.916 276.154 C 246.978 279.735,247.366 279.311,255.113 265.022 C 256.859 261.803,257.195 261.600,260.796 261.600 C 265.122 261.600,264.800 260.295,264.800 277.853 L 264.800 293.146 263.900 293.447 C 262.473 293.924,257.255 293.743,256.593 293.194 C 256.115 292.797,256.000 291.484,256.000 286.418 C 256.000 282.961,255.883 280.016,255.739 279.873 C 255.475 279.608,253.406 282.849,251.359 286.734 C 248.567 292.034,245.173 292.202,242.400 287.178 C 240.202 283.196,238.948 281.281,238.134 280.667 L 237.200 279.963 237.200 286.594 C 237.200 294.245,237.489 293.756,232.962 293.783 C 228.469 293.810,228.800 295.094,228.800 277.631 C 228.800 266.442,228.924 262.436,229.280 262.080 C 229.805 261.555,235.526 261.411,236.200 261.906 M296.842 263.077 C 305.414 267.499,308.697 276.745,304.632 285.021 C 303.239 287.857,299.443 291.526,297.200 292.205 C 296.650 292.372,295.845 292.754,295.411 293.054 C 294.280 293.837,283.941 293.822,282.462 293.036 C 281.878 292.725,280.810 292.251,280.089 291.982 C 275.866 290.409,271.182 282.706,271.205 277.374 C 271.229 271.971,276.461 264.484,281.262 262.985 C 281.778 262.824,282.555 262.446,282.989 262.146 C 284.891 260.830,293.623 261.416,296.842 263.077 M322.218 263.100 C 322.976 263.925,323.597 264.722,323.598 264.871 C 323.599 265.021,323.866 265.409,324.192 265.734 C 324.900 266.443,328.354 270.763,329.200 271.998 C 329.530 272.480,330.135 273.263,330.545 273.737 C 330.955 274.212,331.740 275.183,332.290 275.896 C 333.832 277.897,334.000 277.278,334.000 269.590 C 334.000 261.206,333.773 261.600,338.600 261.600 C 343.647 261.600,343.200 260.049,343.200 277.565 C 343.200 295.075,343.558 293.715,338.942 293.756 C 335.568 293.786,334.707 293.119,330.207 287.000 C 329.560 286.120,328.753 285.107,328.415 284.749 C 328.077 284.391,327.440 283.597,327.000 282.985 C 326.560 282.373,325.618 281.226,324.907 280.436 C 324.196 279.646,323.509 278.685,323.380 278.300 C 322.581 275.909,322.055 279.699,322.037 287.967 C 322.025 293.932,322.111 293.814,317.779 293.749 C 312.786 293.674,313.200 295.137,313.200 277.571 C 313.200 260.092,312.764 261.631,317.720 261.612 C 320.821 261.600,320.850 261.610,322.218 263.100 M357.030 262.500 C 357.454 262.995,358.042 263.830,358.338 264.355 C 359.348 266.149,360.304 267.800,361.874 270.460 C 363.729 273.602,364.077 273.572,366.047 270.095 C 366.762 268.833,367.453 267.710,367.582 267.600 C 367.711 267.490,368.046 266.950,368.328 266.400 C 370.843 261.481,370.687 261.600,374.629 261.600 C 380.425 261.600,380.443 261.054,374.300 271.593 C 371.605 276.216,369.148 280.485,368.840 281.079 C 368.460 281.812,368.254 283.816,368.199 287.306 C 368.099 293.680,368.075 293.715,363.721 293.764 C 358.954 293.819,359.200 294.151,359.200 287.662 C 359.200 283.204,359.081 281.999,358.600 281.600 C 358.270 281.326,358.000 280.941,358.000 280.745 C 358.000 280.391,356.049 276.916,354.699 274.865 C 354.314 274.279,353.716 273.260,353.372 272.600 C 353.027 271.940,352.315 270.680,351.789 269.800 C 351.263 268.920,350.556 267.660,350.219 267.000 C 349.881 266.340,349.165 265.080,348.628 264.200 C 347.272 261.981,347.855 261.600,352.607 261.600 C 355.901 261.600,356.336 261.689,357.030 262.500 M202.400 273.200 L 202.400 278.000 205.853 278.000 C 211.830 278.000,214.165 273.910,210.604 269.677 C 209.543 268.417,209.482 268.400,205.964 268.400 L 202.400 268.400 202.400 273.200 M286.400 269.277 C 278.920 272.642,278.611 282.604,285.886 285.821 C 289.337 287.347,291.986 286.728,294.854 283.723 C 300.845 277.446,294.051 265.836,286.400 269.277 M169.884 273.850 C 169.728 274.006,169.600 274.383,169.600 274.689 C 169.600 274.994,169.253 276.005,168.829 276.936 C 168.405 277.866,167.936 279.117,167.786 279.714 L 167.513 280.800 170.800 280.800 L 174.087 280.800 173.814 279.714 C 173.664 279.117,173.214 277.902,172.813 277.014 C 172.413 276.126,172.019 275.040,171.938 274.600 C 171.793 273.806,170.427 273.307,169.884 273.850 M369.771 301.029 C 370.840 302.097,370.641 306.317,369.500 306.791 C 367.400 307.664,160.212 309.136,158.444 308.291 C 156.796 307.504,156.656 302.775,158.250 301.730 C 160.164 300.476,368.528 299.785,369.771 301.029 " stroke="none" fill="#040404" fill-rule="evenodd"></path><path id="path2" d="M30.400 108.400 C 29.604 109.196,29.600 109.733,29.600 207.520 C 29.600 307.496,29.590 306.800,30.956 306.800 C 31.175 306.800,31.047 306.575,30.673 306.300 C 29.690 305.577,29.816 109.014,30.800 108.392 C 31.746 107.794,71.319 107.879,71.920 108.480 C 72.287 108.847,72.400 118.281,72.400 148.506 C 72.400 187.305,72.469 189.600,73.637 189.600 C 73.861 189.600,73.765 189.200,73.423 188.711 C 72.869 187.921,72.800 183.406,72.800 148.125 C 72.800 109.287,72.783 108.419,72.026 108.014 C 70.351 107.118,31.321 107.479,30.400 108.400 M157.023 108.489 C 156.469 109.279,156.400 113.763,156.400 148.758 C 156.400 184.839,156.345 188.198,155.738 188.869 C 155.014 189.669,155.543 189.897,156.320 189.120 C 156.687 188.753,156.800 179.375,156.800 149.346 C 156.800 124.783,156.946 109.667,157.190 109.026 L 157.580 108.000 177.690 108.006 C 189.664 108.010,198.043 108.166,198.400 108.392 C 198.929 108.726,199.012 117.257,199.103 180.551 L 199.206 252.331 198.103 252.734 C 197.496 252.956,197.281 253.151,197.624 253.168 C 199.754 253.276,199.618 258.527,199.504 180.468 C 199.402 109.985,199.386 108.726,198.624 108.168 C 197.977 107.695,194.475 107.600,177.746 107.600 L 157.645 107.600 157.023 108.489 M72.900 225.065 C 72.505 225.224,72.400 233.748,72.400 265.800 C 72.400 293.082,72.266 306.400,71.990 306.537 C 71.764 306.649,71.809 306.694,72.090 306.637 C 72.498 306.554,72.640 298.435,72.800 266.167 C 72.910 243.965,73.146 225.575,73.324 225.300 C 73.670 224.764,73.660 224.758,72.900 225.065 M155.900 225.230 C 156.279 225.632,156.400 228.969,156.400 239.056 C 156.400 246.369,156.535 252.436,156.700 252.539 C 156.865 252.641,156.910 246.501,156.800 238.895 C 156.629 227.069,156.513 225.040,156.000 224.883 C 155.516 224.735,155.496 224.802,155.900 225.230 M167.338 262.307 C 166.694 262.716,153.948 292.392,154.223 292.838 C 154.346 293.037,154.752 293.179,155.124 293.154 C 155.719 293.113,155.723 293.087,155.154 292.935 C 154.416 292.738,166.692 263.431,167.903 262.500 C 168.593 261.970,168.121 261.808,167.338 262.307 M173.715 262.500 C 174.082 262.775,175.655 265.970,177.212 269.600 C 178.768 273.230,180.207 276.560,180.410 277.000 C 183.864 284.485,187.077 292.630,186.675 292.885 C 186.319 293.112,186.328 293.189,186.713 293.194 C 186.994 293.197,187.311 292.975,187.415 292.700 C 187.652 292.079,175.000 262.774,174.305 262.333 C 173.486 261.813,172.987 261.955,173.715 262.500 M194.182 262.501 C 193.700 263.759,194.204 292.934,194.710 293.037 C 194.990 293.094,195.036 293.049,194.810 292.937 C 193.992 292.531,194.274 262.913,195.100 262.432 C 195.763 262.046,195.763 262.024,195.087 262.012 C 194.696 262.005,194.288 262.226,194.182 262.501 M209.400 262.286 C 219.550 263.693,223.446 273.800,216.605 280.977 C 213.893 283.822,213.847 283.261,217.200 288.283 C 218.740 290.590,219.885 292.663,219.744 292.890 C 219.599 293.125,219.729 293.216,220.044 293.102 C 220.846 292.811,220.755 292.618,217.566 287.860 L 214.673 283.543 216.794 281.471 C 224.103 274.332,219.405 261.655,209.600 262.062 C 208.257 262.117,208.249 262.127,209.400 262.286 M229.782 262.501 C 229.300 263.759,229.804 292.934,230.310 293.037 C 230.590 293.094,230.636 293.049,230.410 292.937 C 229.592 292.531,229.874 262.913,230.700 262.432 C 231.363 262.046,231.363 262.024,230.687 262.012 C 230.296 262.005,229.888 262.226,229.782 262.501 M235.323 262.900 C 235.855 263.395,237.689 266.230,239.397 269.200 C 244.253 277.641,246.038 280.400,246.641 280.400 C 247.641 280.400,248.531 279.113,253.331 270.720 C 256.865 264.542,258.283 262.405,258.931 262.278 C 259.716 262.125,259.723 262.104,259.000 262.061 C 257.722 261.983,257.575 262.186,252.618 270.890 C 248.132 278.765,246.916 280.318,246.002 279.340 C 245.827 279.153,243.654 275.490,241.173 271.200 C 236.313 262.796,235.771 262.000,234.916 262.000 C 234.556 262.000,234.702 262.322,235.323 262.900 M262.459 262.268 C 262.821 262.364,263.224 262.838,263.353 263.321 C 263.784 264.927,263.631 292.718,263.190 292.937 C 262.964 293.049,263.010 293.094,263.290 293.037 C 263.690 292.956,263.823 289.677,263.905 277.793 C 264.014 262.080,264.001 261.945,262.400 262.053 C 261.934 262.084,261.947 262.132,262.459 262.268 M281.601 263.484 C 267.744 270.172,270.159 291.160,285.000 293.027 L 286.200 293.178 285.000 292.820 C 268.307 287.834,269.222 264.609,286.200 262.376 L 288.200 262.113 286.400 262.075 C 285.096 262.047,283.773 262.436,281.601 263.484 M291.800 262.394 C 308.999 265.551,309.306 289.007,292.200 292.924 C 291.520 293.080,291.543 293.114,292.354 293.154 C 301.212 293.584,308.445 280.023,304.097 271.137 C 301.793 266.426,295.658 261.921,291.725 262.050 L 290.200 262.100 291.800 262.394 M314.495 262.333 C 313.505 262.961,313.998 292.964,315.000 293.088 C 315.440 293.142,315.575 293.084,315.300 292.960 C 314.913 292.784,314.800 289.318,314.800 277.594 L 314.800 262.456 315.700 262.282 C 316.476 262.133,316.490 262.102,315.800 262.061 C 315.360 262.034,314.773 262.156,314.495 262.333 M319.400 262.279 C 319.857 262.377,323.019 266.036,326.783 270.825 C 335.663 282.122,335.586 282.130,335.595 269.900 C 335.599 263.169,335.668 262.400,336.267 262.400 C 336.633 262.400,336.827 262.294,336.697 262.163 C 336.567 262.033,336.087 262.046,335.630 262.190 C 334.828 262.445,334.800 262.712,334.800 270.184 C 334.800 277.935,334.470 279.556,333.188 278.113 C 333.035 277.941,330.096 274.245,326.656 269.900 C 321.671 263.602,320.220 262.011,319.501 262.054 C 318.697 262.103,318.686 262.127,319.400 262.279 M341.109 262.336 C 341.511 262.590,341.596 265.902,341.509 277.930 C 341.437 287.981,341.537 293.155,341.800 293.067 C 342.055 292.982,342.238 287.510,342.305 278.014 C 342.410 263.100,342.323 261.989,341.051 262.006 C 340.763 262.010,340.784 262.129,341.109 262.336 M348.954 262.575 C 348.833 262.892,350.128 265.547,351.832 268.475 C 353.536 271.404,355.995 275.649,357.296 277.909 L 359.662 282.017 359.662 286.663 C 359.662 291.439,359.999 293.224,360.890 293.168 C 361.291 293.144,361.293 293.094,360.900 292.935 C 360.535 292.788,360.400 291.303,360.400 287.453 L 360.400 282.173 354.957 272.787 C 348.533 261.707,348.906 262.508,350.069 262.286 L 351.000 262.109 350.087 262.054 C 349.586 262.025,349.076 262.259,348.954 262.575 M355.042 262.370 C 355.505 262.568,356.383 263.602,356.993 264.666 C 364.222 277.266,363.491 277.013,368.403 268.622 C 370.328 265.335,372.240 262.512,372.651 262.350 C 373.285 262.102,373.297 262.052,372.729 262.028 C 371.723 261.986,371.216 262.648,368.067 268.111 C 363.699 275.690,364.036 275.703,359.425 267.779 C 356.744 263.172,356.006 262.183,355.189 262.104 C 354.264 262.014,354.254 262.031,355.042 262.370 M377.100 262.240 C 377.943 262.622,377.766 262.998,372.200 272.607 L 366.800 281.930 366.800 287.336 C 366.800 291.822,366.697 292.773,366.192 292.930 C 365.766 293.062,365.796 293.100,366.292 293.055 C 366.922 292.998,367.022 292.374,367.200 287.396 L 367.401 281.800 372.750 272.670 C 378.349 263.113,378.708 262.299,377.400 262.122 C 376.960 262.063,376.825 262.116,377.100 262.240 M201.500 268.013 C 200.326 268.728,200.462 277.791,201.656 278.430 C 203.507 279.421,210.215 278.727,211.597 277.403 C 214.109 274.996,214.103 271.399,211.584 268.983 C 210.233 267.689,203.150 267.007,201.500 268.013 M211.247 269.553 C 215.002 273.308,212.605 278.076,206.832 278.338 C 201.373 278.586,201.600 278.806,201.600 273.259 C 201.600 267.595,201.268 268.000,205.914 268.000 L 209.694 268.000 211.247 269.553 M284.837 268.829 C 275.499 273.840,278.537 287.373,289.000 287.378 C 297.689 287.382,301.998 276.301,295.538 270.568 C 294.204 269.383,291.674 267.998,290.877 268.014 C 290.505 268.022,291.106 268.452,292.214 268.971 C 301.299 273.222,298.835 287.192,289.000 287.192 C 278.930 287.192,276.507 273.390,285.800 268.961 C 286.900 268.437,287.440 268.028,287.000 268.053 C 286.560 268.078,285.587 268.427,284.837 268.829 M167.869 275.674 C 165.569 281.606,165.566 281.600,170.800 281.600 C 176.074 281.600,176.090 281.569,173.739 275.777 C 170.978 268.975,170.471 268.966,167.869 275.674 M173.294 276.100 C 175.342 281.337,175.415 281.188,170.800 281.188 C 168.930 281.188,167.208 281.056,166.973 280.894 C 166.263 280.405,169.888 271.600,170.800 271.600 C 171.364 271.600,171.941 272.642,173.294 276.100 M321.005 276.072 C 320.517 277.416,320.606 293.097,321.100 292.907 C 321.477 292.762,321.600 290.748,321.600 284.729 C 321.600 274.632,321.221 274.615,329.556 285.100 C 333.786 290.421,336.236 293.184,336.697 293.154 C 337.236 293.118,337.260 293.065,336.800 292.925 C 336.204 292.744,335.434 291.812,327.596 281.800 C 322.655 275.489,321.561 274.538,321.005 276.072 M255.364 277.500 C 255.014 277.885,253.325 280.630,251.610 283.600 C 246.945 291.677,246.681 291.679,241.800 283.666 C 236.292 274.622,236.000 274.697,236.000 285.154 C 236.000 290.843,235.875 292.784,235.500 292.935 C 235.107 293.094,235.109 293.144,235.510 293.168 C 236.476 293.228,236.800 291.129,236.800 284.798 C 236.800 276.294,236.891 276.302,242.168 285.310 C 246.386 292.511,247.306 292.316,252.578 283.100 C 256.521 276.208,256.800 276.371,256.800 285.557 C 256.800 292.610,257.127 294.207,258.324 293.009 C 258.439 292.894,258.323 292.800,258.067 292.800 C 257.728 292.800,257.600 290.779,257.600 285.433 C 257.600 276.565,257.272 275.401,255.364 277.500 M203.500 284.282 C 203.995 284.378,204.805 284.378,205.300 284.282 C 205.795 284.187,205.390 284.109,204.400 284.109 C 203.410 284.109,203.005 284.187,203.500 284.282 M201.300 284.665 C 200.947 284.807,200.800 286.033,200.800 288.826 C 200.800 293.281,200.994 293.039,197.200 293.325 L 195.400 293.460 197.481 293.530 C 201.296 293.658,201.600 293.307,201.600 288.769 C 201.600 286.021,201.748 284.807,202.100 284.665 C 202.375 284.554,202.420 284.463,202.200 284.463 C 201.980 284.463,201.575 284.554,201.300 284.665 M207.325 284.900 C 207.697 285.175,209.135 287.109,210.519 289.198 C 211.952 291.362,213.332 293.022,213.725 293.057 C 214.105 293.091,214.187 293.041,213.908 292.945 C 213.629 292.850,212.187 290.888,210.705 288.586 C 209.017 285.964,207.755 284.400,207.329 284.400 C 206.689 284.400,206.688 284.430,207.325 284.900 M164.123 286.878 C 163.591 287.135,162.815 288.340,162.147 289.951 C 161.541 291.408,160.994 292.672,160.930 292.760 C 160.865 292.848,159.685 293.049,158.306 293.206 C 155.933 293.475,155.899 293.493,157.674 293.545 C 160.179 293.618,161.531 293.046,162.014 291.707 C 163.740 286.924,163.962 286.800,170.800 286.800 C 177.214 286.800,177.673 286.989,178.931 290.155 C 180.064 293.005,180.941 293.613,183.800 293.530 C 185.288 293.487,185.442 293.436,184.400 293.332 C 181.115 293.004,180.446 292.774,180.177 291.886 C 179.388 289.280,178.257 287.263,177.354 286.852 C 176.092 286.277,165.324 286.298,164.123 286.878 M215.700 293.487 C 216.305 293.578,217.295 293.578,217.900 293.487 C 218.505 293.395,218.010 293.320,216.800 293.320 C 215.590 293.320,215.095 293.395,215.700 293.487 M232.105 293.487 C 232.714 293.579,233.614 293.577,234.105 293.482 C 234.597 293.387,234.100 293.311,233.000 293.314 C 231.900 293.317,231.497 293.395,232.105 293.487 M259.500 293.482 C 259.995 293.578,260.805 293.578,261.300 293.482 C 261.795 293.387,261.390 293.309,260.400 293.309 C 259.410 293.309,259.005 293.387,259.500 293.482 M287.900 293.482 C 288.395 293.578,289.205 293.578,289.700 293.482 C 290.195 293.387,289.790 293.309,288.800 293.309 C 287.810 293.309,287.405 293.387,287.900 293.482 M316.900 293.487 C 317.505 293.578,318.495 293.578,319.100 293.487 C 319.705 293.395,319.210 293.320,318.000 293.320 C 316.790 293.320,316.295 293.395,316.900 293.487 M338.300 293.482 C 338.795 293.578,339.605 293.578,340.100 293.482 C 340.595 293.387,340.190 293.309,339.200 293.309 C 338.210 293.309,337.805 293.387,338.300 293.482 M362.505 293.487 C 363.114 293.579,364.014 293.577,364.505 293.482 C 364.997 293.387,364.500 293.311,363.400 293.314 C 362.300 293.317,361.897 293.395,362.505 293.487 M239.200 301.235 C 185.421 301.611,159.054 301.996,158.375 302.415 C 157.725 302.817,157.838 306.721,158.524 307.552 C 158.936 308.052,165.409 308.086,207.000 307.805 C 233.400 307.628,274.800 307.364,299.000 307.220 L 343.000 306.959 310.400 306.872 C 292.470 306.825,251.178 306.997,218.640 307.255 C 151.503 307.788,158.240 308.108,158.482 304.400 L 158.600 302.600 182.200 302.330 C 231.094 301.771,312.831 301.182,340.300 301.191 L 368.800 301.200 368.800 303.800 C 368.800 305.514,368.641 306.400,368.333 306.400 C 368.077 306.400,367.982 306.516,368.124 306.657 C 368.265 306.798,368.655 306.686,368.990 306.408 C 369.735 305.790,369.831 301.991,369.120 301.280 C 368.572 300.732,313.893 300.713,239.200 301.235 M41.528 307.100 C 47.098 307.163,56.098 307.162,61.528 307.100 C 66.958 307.037,62.400 306.985,51.400 306.986 C 40.400 306.986,35.958 307.037,41.528 307.100 " stroke="none" fill="#4e390c" fill-rule="evenodd"></path><path id="path3" d="M30.800 108.392 C 29.816 109.014,29.690 305.577,30.673 306.300 C 31.389 306.826,70.429 307.071,71.767 306.557 C 72.338 306.338,72.400 302.372,72.400 265.765 L 72.400 225.215 73.300 224.998 C 73.795 224.878,92.740 224.830,115.400 224.890 L 156.600 225.000 156.800 238.782 L 157.000 252.564 158.000 252.842 C 159.743 253.327,196.535 253.251,197.944 252.760 L 199.206 252.319 199.103 180.545 C 199.012 117.256,198.929 108.726,198.400 108.392 C 198.043 108.166,189.664 108.010,177.690 108.006 L 157.580 108.000 157.190 109.026 C 156.946 109.667,156.800 124.783,156.800 149.346 C 156.800 179.375,156.687 188.753,156.320 189.120 C 155.367 190.073,73.327 189.785,72.814 188.826 C 72.537 188.308,72.400 175.002,72.400 148.506 C 72.400 118.281,72.287 108.847,71.920 108.480 C 71.319 107.879,31.746 107.794,30.800 108.392 M71.186 109.174 C 71.463 109.692,71.600 123.016,71.600 149.551 L 71.600 189.155 72.489 189.777 C 73.549 190.520,154.642 190.744,156.574 190.010 L 157.600 189.620 157.600 149.899 C 157.600 114.596,157.669 110.079,158.223 109.289 L 158.845 108.400 177.943 108.400 C 192.263 108.400,197.160 108.520,197.520 108.880 C 198.354 109.714,198.202 252.237,197.367 252.557 C 196.534 252.877,161.040 252.864,159.100 252.543 L 157.600 252.295 157.600 238.563 L 157.600 224.831 156.030 224.408 C 153.451 223.714,73.116 224.039,72.263 224.747 C 71.660 225.248,71.595 228.733,71.502 265.747 L 71.400 306.200 51.400 306.200 L 31.400 306.200 31.299 207.842 C 31.225 135.468,31.317 109.341,31.648 108.942 C 32.480 107.940,70.645 108.164,71.186 109.174 M167.903 262.500 C 167.545 262.775,164.387 269.691,160.885 277.869 C 153.811 294.388,154.053 293.189,157.800 293.189 C 160.587 293.189,160.923 292.944,162.106 290.038 C 163.536 286.530,163.846 286.400,170.800 286.400 C 178.091 286.400,178.609 286.702,180.167 291.857 C 180.536 293.074,185.215 293.814,186.675 292.885 C 187.077 292.630,183.864 284.485,180.410 277.000 C 180.207 276.560,178.768 273.230,177.212 269.600 C 174.017 262.148,173.892 262.000,170.800 262.000 C 169.564 262.000,168.260 262.225,167.903 262.500 M195.100 262.408 C 194.454 262.807,194.400 263.982,194.400 277.777 C 194.400 294.561,194.118 293.200,197.600 293.200 C 200.819 293.200,200.800 293.226,200.800 288.788 L 200.800 284.862 202.233 284.389 C 203.122 284.096,204.500 284.020,205.859 284.190 L 208.051 284.464 210.726 288.610 C 213.599 293.064,213.773 293.186,217.276 293.195 C 220.386 293.202,220.383 293.052,217.200 288.283 C 213.847 283.261,213.893 283.822,216.605 280.977 C 222.521 274.771,220.618 266.131,212.684 263.168 C 209.842 262.107,196.523 261.531,195.100 262.408 M230.700 262.432 C 230.053 262.809,230.000 263.973,230.000 277.777 C 230.000 294.481,229.751 293.200,233.000 293.200 C 236.153 293.200,236.000 293.611,236.000 285.145 C 236.000 274.731,236.390 274.625,241.744 283.582 C 246.859 292.140,246.968 292.108,253.647 280.119 C 256.809 274.441,257.586 275.452,257.594 285.257 C 257.601 293.597,257.450 293.200,260.600 293.200 C 263.845 293.200,263.601 294.401,263.595 278.457 C 263.588 262.575,263.586 262.548,261.993 262.198 C 258.730 261.482,258.467 261.741,253.322 270.736 C 248.530 279.113,247.641 280.400,246.641 280.400 C 246.038 280.400,244.253 277.641,239.397 269.200 C 235.302 262.081,233.590 260.749,230.700 262.432 M286.200 262.362 C 274.528 263.976,268.827 278.429,276.277 287.520 C 282.741 295.409,296.592 294.853,302.309 286.476 C 310.015 275.182,300.162 260.432,286.200 262.362 M315.700 262.262 L 314.800 262.456 314.800 277.620 L 314.800 292.785 315.727 293.017 C 316.236 293.145,317.541 293.194,318.627 293.125 L 320.600 293.000 320.800 284.400 C 320.952 277.863,321.120 275.810,321.500 275.840 C 321.775 275.862,322.233 275.907,322.517 275.940 C 322.801 275.973,324.903 278.385,327.188 281.300 C 337.282 294.179,336.508 293.466,340.027 293.131 L 341.400 293.000 341.505 277.827 C 341.620 261.106,341.764 262.013,339.000 262.012 C 335.393 262.010,335.601 261.526,335.595 269.947 C 335.586 282.079,335.634 282.072,326.982 271.127 C 323.472 266.686,320.500 262.908,320.378 262.730 C 320.100 262.324,316.903 262.004,315.700 262.262 M350.069 262.286 C 348.906 262.508,348.533 261.707,354.957 272.787 L 360.400 282.173 360.400 287.444 C 360.400 293.330,360.336 293.204,363.333 293.195 C 366.929 293.183,366.800 293.401,366.800 287.319 L 366.800 281.930 372.200 272.607 C 378.605 261.550,378.501 261.958,374.867 262.028 C 372.387 262.076,372.012 262.458,368.403 268.622 C 363.492 277.012,364.221 277.265,356.995 264.669 C 355.555 262.159,353.838 261.568,350.069 262.286 M211.584 268.983 C 214.103 271.399,214.109 274.996,211.597 277.403 C 210.215 278.727,203.507 279.421,201.656 278.430 C 200.462 277.791,200.326 268.728,201.500 268.013 C 203.150 267.007,210.233 267.689,211.584 268.983 M293.450 269.084 C 299.296 272.206,300.337 279.752,295.603 284.700 C 290.082 290.471,280.286 286.913,279.324 278.788 C 278.412 271.091,286.632 265.444,293.450 269.084 M173.739 275.777 C 176.090 281.569,176.074 281.600,170.800 281.600 C 165.566 281.600,165.569 281.606,167.869 275.674 C 170.471 268.966,170.978 268.975,173.739 275.777 M249.600 301.669 C 228.810 301.852,199.830 302.136,185.200 302.301 L 158.600 302.600 158.482 304.400 C 158.240 308.108,151.503 307.788,218.640 307.255 C 251.178 306.997,297.990 306.789,322.667 306.793 C 347.344 306.797,367.819 306.691,368.167 306.557 C 368.653 306.371,368.800 305.720,368.800 303.757 L 368.800 301.200 328.100 301.269 C 305.715 301.307,270.390 301.487,249.600 301.669 " stroke="none" fill="#745414" fill-rule="evenodd"></path><path id="path4" d="M30.400 107.486 C 30.070 107.615,29.668 107.918,29.506 108.160 C 28.965 108.970,29.138 306.178,29.680 306.720 C 29.944 306.984,30.529 307.197,30.980 307.194 C 31.714 307.189,31.695 307.135,30.800 306.682 L 29.800 306.176 29.699 207.689 C 29.599 109.635,29.602 109.198,30.399 108.401 C 31.320 107.480,70.350 107.117,72.026 108.014 C 72.783 108.419,72.800 109.287,72.800 148.125 C 72.800 183.406,72.869 187.921,73.423 188.711 L 74.045 189.600 114.561 189.600 C 153.303 189.600,155.105 189.568,155.738 188.869 C 156.345 188.198,156.400 184.839,156.400 148.758 C 156.400 113.763,156.469 109.279,157.023 108.489 L 157.645 107.600 177.746 107.600 C 194.475 107.600,197.977 107.695,198.624 108.168 C 199.764 109.001,200.064 251.865,198.928 252.700 C 198.043 253.350,158.380 253.431,157.174 252.786 C 156.433 252.389,156.400 251.812,156.400 239.066 C 156.400 229.250,156.274 225.634,155.920 225.280 C 155.553 224.913,145.811 224.800,114.510 224.800 L 73.580 224.800 73.190 225.826 C 72.946 226.468,72.800 241.756,72.800 266.639 L 72.800 306.426 71.900 306.788 C 71.017 307.143,71.016 307.150,71.851 307.175 C 73.625 307.227,73.591 307.979,73.698 265.761 L 73.800 225.400 114.600 225.400 L 155.400 225.400 155.498 238.800 C 155.594 251.896,155.616 252.216,156.443 252.900 C 157.421 253.709,196.904 253.997,198.974 253.210 L 200.000 252.820 200.000 180.619 L 200.000 108.418 199.054 107.799 C 197.761 106.952,157.173 107.067,156.320 107.920 C 155.903 108.337,155.760 116.386,155.600 148.520 L 155.400 188.600 114.825 188.702 C 82.629 188.783,74.184 188.700,73.931 188.302 C 73.756 188.026,73.609 169.957,73.606 148.149 C 73.601 111.766,73.546 108.453,72.939 107.949 C 72.256 107.382,31.796 106.942,30.400 107.486 M166.230 262.500 C 165.906 262.995,165.353 264.120,165.000 265.000 C 164.648 265.880,164.098 267.185,163.780 267.900 C 162.544 270.671,161.994 271.948,160.205 276.200 C 159.186 278.620,158.070 281.230,157.723 282.000 C 157.376 282.770,156.862 283.940,156.581 284.600 C 156.300 285.260,155.604 286.824,155.035 288.075 C 154.466 289.327,154.000 290.596,154.000 290.895 C 154.000 291.195,153.792 291.648,153.537 291.903 C 152.852 292.588,153.850 293.611,155.149 293.554 C 155.977 293.517,156.030 293.466,155.400 293.315 C 154.960 293.209,154.459 292.990,154.287 292.828 C 153.926 292.489,166.642 262.749,167.338 262.307 C 167.962 261.909,173.671 261.931,174.305 262.333 C 174.978 262.760,187.656 292.068,187.427 292.669 C 187.329 292.927,186.833 293.217,186.324 293.315 L 185.400 293.491 186.326 293.546 C 188.149 293.653,188.905 292.912,188.231 291.680 C 187.906 291.086,186.534 287.990,185.182 284.800 C 183.831 281.610,182.365 278.190,181.924 277.200 C 181.483 276.210,180.895 274.860,180.615 274.200 C 180.336 273.540,179.829 272.370,179.488 271.600 C 177.228 266.492,176.800 265.464,176.800 265.144 C 176.800 264.946,176.348 264.068,175.795 263.192 L 174.790 261.600 170.804 261.600 C 167.112 261.600,166.775 261.666,166.230 262.500 M193.680 262.080 C 193.323 262.437,193.200 266.488,193.200 277.837 C 193.200 294.218,193.130 293.651,195.133 293.575 C 195.603 293.557,195.532 293.442,194.895 293.186 L 193.990 292.822 194.095 277.511 L 194.200 262.200 202.572 262.092 C 210.446 261.990,211.077 262.037,213.172 262.878 C 221.396 266.179,223.163 275.250,216.794 281.471 L 214.673 283.543 217.566 287.860 C 220.923 292.870,220.911 292.837,219.600 293.225 L 218.600 293.520 219.651 293.560 C 221.817 293.642,221.675 292.812,218.783 288.489 C 217.271 286.228,215.942 284.230,215.830 284.049 C 215.718 283.868,216.667 282.629,217.939 281.297 C 222.656 276.355,222.717 269.958,218.091 265.316 C 216.932 264.152,215.759 263.200,215.485 263.200 C 215.212 263.200,214.316 262.840,213.496 262.400 C 211.687 261.430,194.605 261.155,193.680 262.080 M229.280 262.080 C 228.511 262.849,228.599 292.535,229.372 293.177 C 229.687 293.438,230.992 293.723,232.272 293.809 L 234.600 293.966 232.459 293.622 C 229.419 293.133,229.580 294.078,229.695 277.375 L 229.800 262.200 232.624 262.084 C 236.075 261.942,235.407 261.230,241.173 271.200 C 243.654 275.490,245.827 279.153,246.002 279.340 C 246.916 280.318,248.132 278.765,252.618 270.890 C 258.026 261.395,257.471 262.012,260.600 262.012 C 264.293 262.012,264.023 260.724,263.905 277.809 L 263.800 292.964 262.800 293.242 C 261.894 293.494,261.882 293.524,262.667 293.560 C 264.900 293.663,264.800 294.403,264.800 277.837 C 264.800 260.297,265.121 261.600,260.796 261.600 C 257.195 261.600,256.859 261.803,255.113 265.022 C 247.366 279.311,246.978 279.735,244.916 276.154 C 244.082 274.706,243.060 272.954,242.644 272.261 C 242.229 271.567,241.437 270.190,240.884 269.200 C 240.332 268.210,239.547 266.971,239.140 266.446 C 238.733 265.921,238.400 265.329,238.400 265.130 C 238.400 264.705,236.781 262.333,236.200 261.906 C 235.526 261.411,229.805 261.555,229.280 262.080 M282.989 262.146 C 282.555 262.446,281.778 262.824,281.262 262.985 C 276.461 264.484,271.229 271.971,271.205 277.374 C 271.182 282.706,275.866 290.409,280.089 291.982 C 280.810 292.251,281.878 292.725,282.462 293.036 C 283.046 293.346,284.396 293.576,285.462 293.547 L 287.400 293.493 285.600 293.189 C 265.933 289.871,268.983 262.000,289.013 262.000 C 308.935 262.000,311.672 290.632,292.000 293.236 L 290.200 293.474 292.411 293.537 C 293.725 293.575,294.942 293.378,295.411 293.054 C 295.845 292.754,296.650 292.372,297.200 292.205 C 299.443 291.526,303.239 287.857,304.632 285.021 C 308.697 276.745,305.414 267.499,296.842 263.077 C 293.623 261.416,284.891 260.830,282.989 262.146 M313.900 262.032 C 313.253 262.409,313.200 263.581,313.200 277.540 C 313.200 293.656,313.198 293.638,315.180 293.560 L 316.200 293.520 315.200 293.242 L 314.200 292.964 314.095 277.809 C 313.976 260.622,313.658 262.015,317.701 262.006 L 320.403 262.000 326.656 269.900 C 330.096 274.245,333.035 277.941,333.188 278.113 C 334.470 279.555,334.800 277.935,334.800 270.200 C 334.800 261.372,334.497 262.000,338.753 262.000 C 342.659 262.000,342.400 260.871,342.400 277.893 L 342.400 292.826 341.500 293.188 C 340.651 293.529,340.646 293.551,341.420 293.575 C 343.174 293.629,343.200 293.398,343.200 277.534 C 343.200 260.054,343.646 261.600,338.600 261.600 C 333.773 261.600,334.000 261.206,334.000 269.590 C 334.000 277.278,333.832 277.897,332.290 275.896 C 331.740 275.183,330.955 274.212,330.545 273.737 C 330.135 273.263,329.530 272.480,329.200 271.998 C 328.354 270.763,324.900 266.443,324.192 265.734 C 323.866 265.409,323.599 265.021,323.598 264.871 C 323.597 264.722,322.976 263.925,322.218 263.100 C 320.765 261.518,315.863 260.888,313.900 262.032 M348.302 262.100 C 347.709 262.555,347.738 262.743,348.628 264.200 C 349.165 265.080,349.881 266.340,350.219 267.000 C 350.556 267.660,351.263 268.920,351.789 269.800 C 352.315 270.680,353.027 271.940,353.372 272.600 C 353.716 273.260,354.314 274.279,354.699 274.865 C 356.049 276.916,358.000 280.391,358.000 280.745 C 358.000 280.941,358.270 281.326,358.600 281.600 C 359.080 281.999,359.200 283.200,359.200 287.625 C 359.200 293.842,359.041 293.541,362.466 293.786 L 365.000 293.967 362.859 293.622 C 359.840 293.136,359.813 293.082,359.704 287.142 L 359.607 281.923 357.269 277.861 C 355.983 275.628,353.536 271.404,351.832 268.475 C 348.059 261.991,348.066 261.932,352.682 262.084 L 356.177 262.200 359.424 267.779 C 364.058 275.740,363.656 275.742,368.282 267.747 C 371.708 261.827,371.624 261.892,375.612 262.079 C 379.005 262.238,379.127 261.786,372.750 272.670 L 367.401 281.800 367.200 287.383 C 367.001 292.926,366.993 292.968,366.000 293.243 L 365.000 293.520 366.051 293.560 C 367.835 293.628,368.113 292.814,368.200 287.267 C 368.254 283.809,368.461 281.811,368.840 281.079 C 369.148 280.485,371.605 276.216,374.300 271.593 C 380.443 261.054,380.425 261.600,374.629 261.600 C 370.687 261.600,370.843 261.481,368.328 266.400 C 368.046 266.950,367.711 267.490,367.582 267.600 C 367.453 267.710,366.762 268.833,366.047 270.095 C 364.077 273.572,363.729 273.602,361.874 270.460 C 360.304 267.800,359.348 266.149,358.338 264.355 C 356.881 261.769,356.531 261.600,352.607 261.600 C 350.298 261.600,348.713 261.784,348.302 262.100 M201.867 268.267 C 200.965 269.169,201.611 277.987,202.597 278.235 C 210.199 280.143,216.008 274.314,211.247 269.553 L 209.694 268.000 205.914 268.000 C 203.835 268.000,202.013 268.120,201.867 268.267 M285.800 268.961 C 281.751 270.891,279.920 273.581,279.920 277.600 C 279.920 288.023,293.368 290.711,297.388 281.091 C 300.412 273.852,292.631 265.706,285.800 268.961 M210.604 269.677 C 214.165 273.910,211.830 278.000,205.853 278.000 L 202.400 278.000 202.400 273.200 L 202.400 268.400 205.964 268.400 C 209.482 268.400,209.543 268.417,210.604 269.677 M291.445 269.261 C 299.024 272.614,299.147 282.697,291.649 286.023 C 283.626 289.583,276.735 277.511,283.269 271.343 C 286.108 268.664,288.638 268.019,291.445 269.261 M168.306 276.100 C 166.258 281.337,166.185 281.188,170.800 281.188 C 172.670 281.188,174.392 281.056,174.627 280.894 C 175.337 280.405,171.712 271.600,170.800 271.600 C 170.236 271.600,169.659 272.642,168.306 276.100 M171.938 274.600 C 172.019 275.040,172.413 276.126,172.813 277.014 C 173.214 277.902,173.664 279.117,173.814 279.714 L 174.087 280.800 170.800 280.800 L 167.513 280.800 167.786 279.714 C 167.936 279.117,168.405 277.866,168.829 276.936 C 169.253 276.005,169.600 274.994,169.600 274.689 C 169.600 273.334,171.692 273.255,171.938 274.600 M321.600 284.724 L 321.600 292.703 320.500 293.137 C 319.895 293.376,318.860 293.646,318.200 293.737 C 317.540 293.827,317.971 293.844,319.157 293.774 C 322.045 293.603,322.025 293.643,322.037 287.967 C 322.055 279.699,322.581 275.909,323.380 278.300 C 323.509 278.685,324.196 279.646,324.907 280.436 C 325.618 281.226,326.560 282.373,327.000 282.985 C 327.440 283.597,328.077 284.391,328.415 284.749 C 328.753 285.107,329.560 286.120,330.207 287.000 C 334.114 292.313,335.543 293.556,338.000 293.774 L 340.200 293.969 338.069 293.549 L 335.938 293.129 329.528 285.065 C 321.225 274.619,321.600 274.636,321.600 284.724 M237.094 278.239 C 236.932 278.401,236.800 281.372,236.800 284.841 C 236.800 291.428,236.527 292.996,235.323 293.338 C 234.925 293.451,235.140 293.511,235.800 293.472 L 237.000 293.400 237.200 286.734 C 237.444 278.607,237.749 278.632,242.400 287.165 C 245.146 292.202,248.565 292.038,251.359 286.734 C 253.406 282.849,255.475 279.608,255.739 279.873 C 255.883 280.016,256.000 282.947,256.000 286.387 C 256.000 293.084,256.149 293.625,257.980 293.568 L 259.000 293.537 257.900 293.135 L 256.800 292.733 256.800 285.567 C 256.800 276.369,256.521 276.207,252.578 283.100 C 247.195 292.509,246.471 292.603,241.684 284.515 C 238.543 279.209,237.521 277.812,237.094 278.239 M202.100 284.665 C 201.748 284.807,201.600 286.022,201.600 288.772 C 201.600 292.427,201.542 292.706,200.700 293.112 C 199.842 293.526,199.838 293.547,200.620 293.573 C 202.112 293.622,202.400 292.837,202.400 288.720 L 202.400 284.800 204.324 284.800 C 206.705 284.800,206.939 284.993,209.718 289.238 C 212.541 293.551,212.556 293.562,215.641 293.784 C 218.181 293.966,218.184 293.965,216.103 293.628 C 213.040 293.132,213.117 293.195,210.387 289.012 C 207.421 284.468,205.320 283.366,202.100 284.665 M164.542 287.270 C 163.746 287.655,163.010 288.948,162.013 291.711 C 161.792 292.322,161.204 292.985,160.706 293.185 L 159.800 293.549 160.673 293.575 C 161.670 293.604,163.001 291.961,163.427 290.176 C 164.009 287.734,164.376 287.600,170.488 287.600 C 176.747 287.600,177.337 287.780,178.023 289.897 C 178.736 292.094,179.920 293.601,180.927 293.594 C 181.784 293.588,181.783 293.579,180.851 293.094 C 180.255 292.783,179.542 291.692,178.931 290.155 C 178.267 288.483,177.643 287.566,176.961 287.255 C 175.706 286.683,165.729 286.695,164.542 287.270 M157.100 293.882 C 157.595 293.978,158.405 293.978,158.900 293.882 C 159.395 293.787,158.990 293.709,158.000 293.709 C 157.010 293.709,156.605 293.787,157.100 293.882 M182.700 293.882 C 183.195 293.978,184.005 293.978,184.500 293.882 C 184.995 293.787,184.590 293.709,183.600 293.709 C 182.610 293.709,182.205 293.787,182.700 293.882 M196.900 293.876 C 197.285 293.976,197.915 293.976,198.300 293.876 C 198.685 293.775,198.370 293.693,197.600 293.693 C 196.830 293.693,196.515 293.775,196.900 293.876 M198.968 300.784 C 152.962 301.057,157.085 300.628,157.282 305.117 C 157.390 307.558,157.492 307.836,158.452 308.295 C 159.514 308.802,263.656 308.354,320.200 307.598 C 335.695 307.391,327.002 307.345,292.000 307.449 C 264.170 307.532,222.859 307.716,200.199 307.859 C 164.733 308.083,158.931 308.040,158.522 307.547 C 157.837 306.722,157.725 302.817,158.375 302.415 C 160.096 301.352,368.071 300.231,369.120 301.280 C 369.780 301.940,369.739 305.787,369.066 306.345 C 368.705 306.644,364.311 306.825,355.566 306.900 L 342.600 307.011 355.726 307.106 C 364.192 307.167,369.127 307.053,369.626 306.786 C 370.644 306.241,370.751 302.008,369.771 301.029 C 369.093 300.350,291.083 300.239,198.968 300.784 " stroke="none" fill="#342c08" fill-rule="evenodd"></path></g></svg>
